<?xml version="1.0" encoding="UTF-8" standalone="no"?>
<svg width="215px" height="180px" viewBox="0 0 215 180" version="1.1" xmlns="http://www.w3.org/2000/svg" xmlns:xlink="http://www.w3.org/1999/xlink" xmlns:sketch="http://www.bohemiancoding.com/sketch/ns">
    <!-- Generator: Sketch 3.2.2 (9983) - http://www.bohemiancoding.com/sketch -->
    <title>Artboard 1</title>
    <desc>Created with Sketch.</desc>
    <defs></defs>
    <g id="Page-1" stroke="none" stroke-width="1" fill="none" fill-rule="evenodd" sketch:type="MSPage">
        <g id="Artboard-1" sketch:type="MSArtboardGroup" fill="#FFFFFF">
            <rect id="Rectangle-64" sketch:type="MSShapeGroup" x="0" y="0" width="9" height="2"></rect>
            <rect id="Rectangle-63" sketch:type="MSShapeGroup" x="13" y="0" width="8" height="2"></rect>
            <rect id="Rectangle-62" sketch:type="MSShapeGroup" x="25" y="0" width="8" height="2"></rect>
            <rect id="Rectangle-1" sketch:type="MSShapeGroup" x="0" y="15" width="2" height="8"></rect>
            <rect id="Rectangle-65" sketch:type="MSShapeGroup" x="0" y="2" width="2" height="9"></rect>
            <rect id="Rectangle-45" sketch:type="MSShapeGroup" x="213" y="26" width="2" height="8"></rect>
            <rect id="Rectangle-44" sketch:type="MSShapeGroup" x="213" y="38" width="2" height="8"></rect>
            <rect id="Rectangle-43" sketch:type="MSShapeGroup" x="213" y="50" width="2" height="8"></rect>
            <rect id="Rectangle-42" sketch:type="MSShapeGroup" x="213" y="62" width="2" height="8"></rect>
            <rect id="Rectangle-41" sketch:type="MSShapeGroup" x="213" y="74" width="2" height="8"></rect>
            <rect id="Rectangle-40" sketch:type="MSShapeGroup" x="213" y="86" width="2" height="8"></rect>
            <rect id="Rectangle-39" sketch:type="MSShapeGroup" x="213" y="98" width="2" height="8"></rect>
            <rect id="Rectangle-38" sketch:type="MSShapeGroup" x="213" y="110" width="2" height="8"></rect>
            <rect id="Rectangle-37" sketch:type="MSShapeGroup" x="213" y="122" width="2" height="8"></rect>
            <rect id="Rectangle-36" sketch:type="MSShapeGroup" x="213" y="134" width="2" height="8"></rect>
            <rect id="Rectangle-35" sketch:type="MSShapeGroup" x="213" y="146" width="2" height="8"></rect>
            <rect id="Rectangle-34" sketch:type="MSShapeGroup" x="213" y="158" width="2" height="8"></rect>
            <rect id="Rectangle-28" sketch:type="MSShapeGroup" x="213" y="170" width="2" height="8"></rect>
            <rect id="Rectangle-15" sketch:type="MSShapeGroup" x="0" y="178" width="11" height="2"></rect>
            <rect id="Rectangle-16" sketch:type="MSShapeGroup" x="15" y="178" width="8" height="2"></rect>
            <rect id="Rectangle-17" sketch:type="MSShapeGroup" x="27" y="178" width="8" height="2"></rect>
            <rect id="Rectangle-18" sketch:type="MSShapeGroup" x="39" y="178" width="8" height="2"></rect>
            <rect id="Rectangle-21" sketch:type="MSShapeGroup" x="51" y="178" width="8" height="2"></rect>
            <rect id="Rectangle-20" sketch:type="MSShapeGroup" x="63" y="178" width="8" height="2"></rect>
            <rect id="Rectangle-19" sketch:type="MSShapeGroup" x="75" y="178" width="8" height="2"></rect>
            <rect id="Rectangle-27" sketch:type="MSShapeGroup" x="87" y="178" width="8" height="2"></rect>
            <rect id="Rectangle-26" sketch:type="MSShapeGroup" x="99" y="178" width="8" height="2"></rect>
            <rect id="Rectangle-25" sketch:type="MSShapeGroup" x="111" y="178" width="8" height="2"></rect>
            <rect id="Rectangle-24" sketch:type="MSShapeGroup" x="123" y="178" width="8" height="2"></rect>
            <rect id="Rectangle-23" sketch:type="MSShapeGroup" x="135" y="178" width="8" height="2"></rect>
            <rect id="Rectangle-22" sketch:type="MSShapeGroup" x="147" y="178" width="8" height="2"></rect>
            <rect id="Rectangle-33" sketch:type="MSShapeGroup" x="159" y="178" width="8" height="2"></rect>
            <rect id="Rectangle-32" sketch:type="MSShapeGroup" x="171" y="178" width="8" height="2"></rect>
            <rect id="Rectangle-31" sketch:type="MSShapeGroup" x="183" y="178" width="8" height="2"></rect>
            <rect id="Rectangle-30" sketch:type="MSShapeGroup" x="195" y="178" width="8" height="2"></rect>
            <rect id="Rectangle-29" sketch:type="MSShapeGroup" x="207" y="178" width="8" height="2"></rect>
            <rect id="Rectangle-61" sketch:type="MSShapeGroup" x="37" y="0" width="8" height="2"></rect>
            <rect id="Rectangle-60" sketch:type="MSShapeGroup" x="49" y="0" width="8" height="2"></rect>
            <rect id="Rectangle-59" sketch:type="MSShapeGroup" x="61" y="0" width="8" height="2"></rect>
            <rect id="Rectangle-58" sketch:type="MSShapeGroup" x="73" y="0" width="8" height="2"></rect>
            <rect id="Rectangle-57" sketch:type="MSShapeGroup" x="85" y="0" width="8" height="2"></rect>
            <rect id="Rectangle-56" sketch:type="MSShapeGroup" x="97" y="0" width="8" height="2"></rect>
            <rect id="Rectangle-55" sketch:type="MSShapeGroup" x="109" y="0" width="8" height="2"></rect>
            <rect id="Rectangle-54" sketch:type="MSShapeGroup" x="121" y="0" width="8" height="2"></rect>
            <rect id="Rectangle-53" sketch:type="MSShapeGroup" x="133" y="0" width="8" height="2"></rect>
            <rect id="Rectangle-52" sketch:type="MSShapeGroup" x="145" y="0" width="8" height="2"></rect>
            <rect id="Rectangle-51" sketch:type="MSShapeGroup" x="157" y="0" width="8" height="2"></rect>
            <rect id="Rectangle-50" sketch:type="MSShapeGroup" x="169" y="0" width="8" height="2"></rect>
            <rect id="Rectangle-49" sketch:type="MSShapeGroup" x="181" y="0" width="8" height="2"></rect>
            <rect id="Rectangle-48" sketch:type="MSShapeGroup" x="193" y="0" width="8" height="2"></rect>
            <rect id="Rectangle-47" sketch:type="MSShapeGroup" x="205" y="0" width="8" height="2"></rect>
            <rect id="Rectangle-2" sketch:type="MSShapeGroup" x="0" y="27" width="2" height="8"></rect>
            <rect id="Rectangle-3" sketch:type="MSShapeGroup" x="0" y="39" width="2" height="8"></rect>
            <rect id="Rectangle-6" sketch:type="MSShapeGroup" x="0" y="51" width="2" height="8"></rect>
            <rect id="Rectangle-5" sketch:type="MSShapeGroup" x="0" y="63" width="2" height="8"></rect>
            <rect id="Rectangle-4" sketch:type="MSShapeGroup" x="0" y="75" width="2" height="8"></rect>
            <rect id="Rectangle-12" sketch:type="MSShapeGroup" x="0" y="87" width="2" height="8"></rect>
            <rect id="Rectangle-11" sketch:type="MSShapeGroup" x="0" y="99" width="2" height="8"></rect>
            <rect id="Rectangle-10" sketch:type="MSShapeGroup" x="0" y="111" width="2" height="8"></rect>
            <rect id="Rectangle-9" sketch:type="MSShapeGroup" x="0" y="123" width="2" height="8"></rect>
            <rect id="Rectangle-8" sketch:type="MSShapeGroup" x="0" y="135" width="2" height="8"></rect>
            <rect id="Rectangle-7" sketch:type="MSShapeGroup" x="0" y="147" width="2" height="8"></rect>
            <rect id="Rectangle-13" sketch:type="MSShapeGroup" x="0" y="159" width="2" height="8"></rect>
            <rect id="Rectangle-14" sketch:type="MSShapeGroup" x="0" y="171" width="2" height="8"></rect>
            <rect id="Rectangle-46" sketch:type="MSShapeGroup" x="213" y="14" width="2" height="8"></rect>
            <rect id="Rectangle-66" sketch:type="MSShapeGroup" x="213" y="0" width="2" height="10"></rect>
        </g>
    </g>
</svg>